#N canvas 579 180 1440 741 12;
#X obj 80 174 osc~;
#X msg 37 65 440, f 4;
#X obj 73 310 dac~;
#X obj 79 242 *~, f 4;
#X msg 97 66 0;
#X msg 296 191 1;
#X msg 298 265 0.5;
#X msg 296 227 0;
#X obj 253 305 hsl 170 20 0 1 0 0 empty empty empty -2 -10 0 12 #fcfcfc #000000 #000000 0 1;
#X obj 171 62 hsl 128 15 20 20000 0 0 empty empty empty -2 -10 0 12 #fcfcfc #000000 #000000 0 1;
#X msg 408 37 130.81;
#X msg 486 38 146.83;
#X msg 557 39 164.81;
#X msg 696 40 174.61;
#X msg 757 39 196, f 4;
#X msg 818 39 220, f 4;
#X msg 884 36 246.94;
#X msg 628 39 261.63;
#X connect 0 0 3 0;
#X connect 1 0 0 0;
#X connect 3 0 2 0;
#X connect 3 0 2 1;
#X connect 4 0 0 0;
#X connect 5 0 3 1;
#X connect 6 0 3 1;
#X connect 7 0 3 1;
#X connect 8 0 3 1;
#X connect 9 0 0 0;
#X connect 10 0 0 0;
#X connect 11 0 0 0;
#X connect 12 0 0 0;
#X connect 13 0 0 0;
#X connect 14 0 0 0;
#X connect 15 0 0 0;
#X connect 16 0 0 0;
#X connect 17 0 0 0;
